<?xml version="1.0" encoding="UTF-8" standalone="no"?>
<!-- Created with Inkscape (http://www.inkscape.org/) -->

<svg
   xmlns:dc="http://purl.org/dc/elements/1.1/"
   xmlns:cc="http://creativecommons.org/ns#"
   xmlns:rdf="http://www.w3.org/1999/02/22-rdf-syntax-ns#"
   xmlns:svg="http://www.w3.org/2000/svg"
   xmlns="http://www.w3.org/2000/svg"
   xmlns:xlink="http://www.w3.org/1999/xlink"
   xmlns:sodipodi="http://sodipodi.sourceforge.net/DTD/sodipodi-0.dtd"
   xmlns:inkscape="http://www.inkscape.org/namespaces/inkscape"
   id="svg2"
   version="1.1"
   inkscape:version="0.47 r22583"
   width="299.88489"
   height="222.4743"
   sodipodi:docname="ma_logo.svg"
   inkscape:export-filename="/home/rino/MestizoAmerica/imagenes/logos/ma_logo.png"
   inkscape:export-xdpi="36.408699"
   inkscape:export-ydpi="36.408699">
  <metadata
     id="metadata8">
    <rdf:RDF>
      <cc:Work
         rdf:about="">
        <dc:format>image/svg+xml</dc:format>
        <dc:type
           rdf:resource="http://purl.org/dc/dcmitype/StillImage" />
        <dc:title></dc:title>
      </cc:Work>
    </rdf:RDF>
  </metadata>
  <defs
     id="defs6">
    <inkscape:perspective
       sodipodi:type="inkscape:persp3d"
       inkscape:vp_x="0 : 0.5 : 1"
       inkscape:vp_y="0 : 1000 : 0"
       inkscape:vp_z="1 : 0.5 : 1"
       inkscape:persp3d-origin="0.5 : 0.33333333 : 1"
       id="perspective10" />
    <inkscape:perspective
       id="perspective3611"
       inkscape:persp3d-origin="0.5 : 0.33333333 : 1"
       inkscape:vp_z="1 : 0.5 : 1"
       inkscape:vp_y="0 : 1000 : 0"
       inkscape:vp_x="0 : 0.5 : 1"
       sodipodi:type="inkscape:persp3d" />
    <inkscape:perspective
       id="perspective3633"
       inkscape:persp3d-origin="0.5 : 0.33333333 : 1"
       inkscape:vp_z="1 : 0.5 : 1"
       inkscape:vp_y="0 : 1000 : 0"
       inkscape:vp_x="0 : 0.5 : 1"
       sodipodi:type="inkscape:persp3d" />
    <inkscape:perspective
       id="perspective3678"
       inkscape:persp3d-origin="0.5 : 0.33333333 : 1"
       inkscape:vp_z="1 : 0.5 : 1"
       inkscape:vp_y="0 : 1000 : 0"
       inkscape:vp_x="0 : 0.5 : 1"
       sodipodi:type="inkscape:persp3d" />
    <inkscape:perspective
       id="perspective3711"
       inkscape:persp3d-origin="0.5 : 0.33333333 : 1"
       inkscape:vp_z="1 : 0.5 : 1"
       inkscape:vp_y="0 : 1000 : 0"
       inkscape:vp_x="0 : 0.5 : 1"
       sodipodi:type="inkscape:persp3d" />
    <inkscape:perspective
       id="perspective3733"
       inkscape:persp3d-origin="0.5 : 0.33333333 : 1"
       inkscape:vp_z="1 : 0.5 : 1"
       inkscape:vp_y="0 : 1000 : 0"
       inkscape:vp_x="0 : 0.5 : 1"
       sodipodi:type="inkscape:persp3d" />
    <inkscape:perspective
       id="perspective3770"
       inkscape:persp3d-origin="0.5 : 0.33333333 : 1"
       inkscape:vp_z="1 : 0.5 : 1"
       inkscape:vp_y="0 : 1000 : 0"
       inkscape:vp_x="0 : 0.5 : 1"
       sodipodi:type="inkscape:persp3d" />
  </defs>
  <sodipodi:namedview
     pagecolor="#ffffff"
     bordercolor="#666666"
     borderopacity="1"
     objecttolerance="10"
     gridtolerance="10"
     guidetolerance="10"
     inkscape:pageopacity="0"
     inkscape:pageshadow="2"
     inkscape:window-width="1680"
     inkscape:window-height="1026"
     id="namedview4"
     showgrid="false"
     inkscape:zoom="1"
     inkscape:cx="153.56479"
     inkscape:cy="109.82271"
     inkscape:window-x="1680"
     inkscape:window-y="0"
     inkscape:window-maximized="1"
     inkscape:current-layer="layer5" />
  <g
     inkscape:groupmode="layer"
     id="layer6"
     inkscape:label="mapa de bits"
     style="display:none"
     transform="translate(0.06478565,-1.8484071)">
    <image
       xlink:href="file:///home/rino/Escritorio/ma_v16.png"
       width="300"
       height="224"
       id="image12"
       x="2"
       y="2" />
  </g>
  <g
     inkscape:groupmode="layer"
     id="layer2"
     inkscape:label="pradera"
     style="display:inline"
     transform="translate(0.06478565,-1.8484071)">
    <path
       style="fill:#52b400;fill-opacity:1;stroke:#2e9740;stroke-width:1px;stroke-linecap:butt;stroke-linejoin:miter;stroke-opacity:1"
       d="M 77.022531,223.55575 C 77.560485,208.7131 93.106888,194.53733 136.41906,180.48376 213.46015,155.48611 298.92329,175.38582 299.31375,168.1562 300.27735,150.14575 191.65618,119.99356 112.79856,132.24549 25.207678,145.85428 -6.2454522,174.68417 1.5913743,190.59817 11.558155,210.83742 76.932355,226.04378 77.022531,223.55575 z"
       id="path3615"
       sodipodi:nodetypes="csssss" />
  </g>
  <g
     inkscape:groupmode="layer"
     id="layer1"
     inkscape:label="montañas"
     style="display:inline"
     transform="translate(0.06478565,-1.8484071)">
    <path
       style="fill:#6f3b00;fill-opacity:1;stroke:#5a0202;stroke-width:1px;stroke-linecap:butt;stroke-linejoin:miter;stroke-opacity:1"
       d="M 33.885941,170.15514 C 46.601881,133.33767 82.814657,10.185171 93.718491,7.7567312 101.97187,5.9185849 105.02423,50.267406 105.02423,50.267406 c 0,0 4.94982,64.997934 8.73546,49.501615 5.57883,-22.836712 14.71874,-68.64339 19.71111,-50.552207 15.80023,57.256466 13.34957,61.567186 17.8934,60.746306 3.61337,-0.65278 21.20355,-50.04254 31.18713,-45.916217 8.85648,3.660478 43.76217,57.707177 56.5186,88.107467 1.01678,2.42311 -37.40763,-0.28892 -39.69293,-3.67107 -6.66012,-13.69457 -5.79605,-32.043 -16.35298,-31.93583 -10.65137,0.10626 -18.95609,19.00128 -25.12626,29.50651 -1.00654,1.71371 -25.25337,3.74604 -25.62221,1.94516 -0.95052,-4.64097 -3.64291,-28.16596 -4.94229,-27.40946 -3.37309,1.96384 -6.32777,27.38295 -10.73254,28.29127 -3.5,0.72174 -21.471275,4.448 -21.513288,2.31019 -0.189743,-9.6549 -4.459059,-46.70566 -6.470589,-44.82312 -1.33098,1.24563 -3.487617,19.79107 -2.701301,45.77241 0.147792,4.88335 -53.447978,22.12145 -52.029601,18.01471 z"
       id="path2819"
       sodipodi:nodetypes="cscssssscsssssssss" />
  </g>
  <g
     inkscape:groupmode="layer"
     id="layer3"
     inkscape:label="rio"
     style="display:inline"
     transform="translate(0.06478565,-1.8484071)">
    <path
       style="fill:#00c6bf;fill-opacity:1;stroke:#00aba8;stroke-width:1px;stroke-linecap:butt;stroke-linejoin:miter;stroke-opacity:1"
       d="M 59.923574,215.32041 C 8.2389751,195.414 15.034819,181.70255 49.2765,176.8888 c 36.284694,-4.51469 30.159122,-15.2127 68.34067,-12.01234 16.17988,1.34998 30.25567,6.84901 22.4815,9.41138 -23.96117,7.89763 -30.55564,6.68178 -51.345982,20.99412 -19.835,13.65467 -10.958119,26.92149 -28.829114,20.03845 z"
       id="path3599"
       sodipodi:nodetypes="ccssss" />
  </g>
  <path
     style="fill:#ffffff;fill-opacity:1;stroke:#ffffff;stroke-width:1px;stroke-linecap:butt;stroke-linejoin:miter;stroke-opacity:0.04313725"
     d="M 74.085395,57.293977 C 79.675542,38.862292 90.970096,9.9840119 94.34559,10.293967 c 1.76054,0.161662 5.549619,16.03679 6.34099,35.227868 0.11911,2.888469 -5.341075,-8.866959 -9.44035,-9.390379 -4.553987,-0.58148 -19.303964,28.228791 -17.160835,21.162521 z"
     id="path3601"
     sodipodi:nodetypes="cssss" />
  <path
     style="fill:#ffffff;fill-opacity:1;stroke:#ffffff;stroke-width:1px;stroke-linecap:butt;stroke-linejoin:miter;stroke-opacity:0.04313725"
     d="m 121.9158,75.637504 c 4.12803,-19.057011 5.83171,-27.423314 9.20721,-27.113359 1.76054,0.161662 2.08392,3.038788 5.78939,24.871627 0.5124,3.019069 -4.5226,-3.838509 -6.61524,-3.802939 -2.94903,0.05013 -9.62937,11.806106 -8.38136,6.044671 z"
     id="path3601-3"
     sodipodi:nodetypes="cssss" />
  <path
     style="fill:#ffffff;fill-opacity:1;stroke:#ffffff;stroke-width:1.16717708px;stroke-linecap:butt;stroke-linejoin:miter;stroke-opacity:0.04313725"
     d="M 198.96218,86.743337 C 187.90027,69.394457 183.3958,64.54064 180.45581,65.331572 c -4.68927,1.261534 -8.47574,10.523699 -11.26216,18.28161 -1.48935,4.146641 9.47418,-2.606009 12.34168,-2.570647 4.041,0.04984 20.64063,10.741121 17.42685,5.700802 z"
     id="path3601-3-4"
     sodipodi:nodetypes="cssss" />
  <g
     inkscape:groupmode="layer"
     id="layer4"
     inkscape:label="sol"
     style="display:inline"
     transform="translate(0.06478565,-1.8484071)">
    <path
       style="fill:#eecc00;fill-opacity:1;stroke:none"
       d="m 198.73678,32.300382 c -2.12261,16.99648 -15.87048,25.263186 -31.43162,25.263186 -15.56114,0 -25.50877,-7.546156 -25.50877,-23.496326 0,-15.950169 16.16696,-32.2188349 31.7281,-32.2188349 15.56114,0 27.39692,12.9588789 25.21229,30.4519749 z"
       id="path3648"
       sodipodi:nodetypes="cssss" />
    <flowRoot
       xml:space="preserve"
       id="flowRoot3658"
       style="font-size:40px;font-style:normal;font-weight:normal;fill:#000000;fill-opacity:1;stroke:none;font-family:Bitstream Vera Sans"><flowRegion
         id="flowRegion3660"><rect
           id="rect3662"
           width="162.90427"
           height="51.772316"
           x="277.60672"
           y="14.232859" /></flowRegion><flowPara
         id="flowPara3664" /></flowRoot>  </g>
  <g
     inkscape:groupmode="layer"
     id="layer5"
     inkscape:label="fondo-textos"
     style="display:inline"
     transform="translate(0.06478565,-1.8484071)">
    <rect
       style="fill:#4d8d93;fill-opacity:1;stroke:none;display:inline"
       id="rect3656-2"
       width="173.32837"
       height="23.490374"
       x="108.39144"
       y="195.17668"
       ry="4.1947002" />
    <rect
       style="fill:#3c6d73;fill-opacity:1;stroke:#4c8c94;stroke-width:0.73099995;stroke-miterlimit:4;stroke-opacity:1;stroke-dasharray:none"
       id="rect3656"
       width="103.84611"
       height="15.722465"
       x="189.06844"
       y="182.29002"
       ry="2.8075764" />
    <text
       xml:space="preserve"
       style="font-size:10px;font-style:normal;font-weight:normal;fill:#ffffff;fill-opacity:1;stroke:#ffffff;stroke-width:0.73099995;stroke-miterlimit:4;stroke-opacity:1;stroke-dasharray:none;display:inline;font-family:Phetsarath OT;-inkscape-font-specification:Phetsarath OT"
       x="208.15189"
       y="193.68016"
       id="text3651"><tspan
         sodipodi:role="line"
         id="tspan3653"
         x="208.15189"
         y="193.68016"
         style="font-size:10px;stroke:#ffffff;stroke-width:0.73099995;stroke-miterlimit:4;stroke-opacity:1;stroke-dasharray:none;font-family:Purisa;-inkscape-font-specification:Purisa">FUNDACIÓN</tspan></text>
    <text
       xml:space="preserve"
       style="font-size:13.93946648px;font-style:normal;font-weight:normal;fill:#ffffff;fill-opacity:1;stroke:none;display:inline;font-family:Phetsarath OT;-inkscape-font-specification:Phetsarath OT"
       x="128.3965"
       y="212.96062"
       id="text3651-8"><tspan
         sodipodi:role="line"
         id="tspan3653-4"
         x="128.3965"
         y="212.96062"
         style="font-style:normal;font-variant:normal;font-weight:normal;font-stretch:normal;font-family:Sans;-inkscape-font-specification:Sans"><tspan
   style="font-size:17.42433357px"
   id="tspan3750">M</tspan>ESTIZO<tspan
   style="font-size:17.42433357px"
   id="tspan3752">A</tspan>MÉRICA</tspan></text>
  </g>
</svg>
